<svg id="e1ce41a7-a26f-4d9b-a97d-aeea71b4ffbf" data-name="Layer 1" xmlns="http://www.w3.org/2000/svg" viewBox="0 0 64 64"><defs><style>.a7625dae-b781-4174-9572-043586b7a978{fill:#e3a343;}.b6ca7048-60b4-477f-b7cc-403a5d1d52dc{fill:#00b7c3;}</style></defs><path class="a7625dae-b781-4174-9572-043586b7a978" d="M51.74,29.47V28.1c0-1.06-.47-1.51-1.58-1.51H38.73c-2.74,0-4.24-1.47-4.24-4.13V12.2c0-2.58,1.53-4.06,4.19-4.06H58.55c2.66,0,4.18,1.48,4.19,4.06V22.58c0,2.5-1.55,4-4.12,4-1,0-1.92,0-2.87,0a1.93,1.93,0,0,0-1.5.61L51.9,29.54ZM43.8,17.38a1.23,1.23,0,1,0-1.25,1.19A1.25,1.25,0,0,0,43.8,17.38Zm6.06,0a1.24,1.24,0,0,0-2.48,0,1.24,1.24,0,0,0,2.48,0Zm4.79,1.2a1.21,1.21,0,1,0-1.2-1.23A1.24,1.24,0,0,0,54.65,18.57Z"></path><path class="b6ca7048-60b4-477f-b7cc-403a5d1d52dc" d="M41.43,45.24,55.57,59.38A18,18,0,0,1,50,62.28a19.58,19.58,0,0,1-18.16-3.07A118.4,118.4,0,0,1,14,43.48,96.34,96.34,0,0,1,3.73,30.55,18.78,18.78,0,0,1,.93,17.4,19.58,19.58,0,0,1,6.42,6.3a6.52,6.52,0,0,1,9.08-.37Q18.4,8.6,21.07,11.5a6.51,6.51,0,0,1-.28,9,1.37,1.37,0,0,1-.21.18l-.5-.48-7.34-7.33a2.73,2.73,0,0,0-.92-.59,1.06,1.06,0,0,0-1.25.46,1.11,1.11,0,0,0-.05,1.34,3.42,3.42,0,0,0,.52.62L18.33,22c.15.15.32.27.65.54-.49.42-.93.74-1.3,1.12a6,6,0,0,0-.28,8.67A127,127,0,0,0,31.7,46.6a6.05,6.05,0,0,0,8.69-.29C40.75,46,41.11,45.57,41.43,45.24Zm-17,4.68a1.27,1.27,0,0,0,1.35-.72,1.25,1.25,0,0,0-.36-1.52l-7.21-7a1.25,1.25,0,1,0-1.75,1.77q3.59,3.52,7.2,7A3.4,3.4,0,0,0,24.44,49.92ZM13.91,36.52a1.21,1.21,0,0,0-1.2,1.25A1.27,1.27,0,0,0,14,39a1.31,1.31,0,0,0,1.19-1.23A1.28,1.28,0,0,0,13.91,36.52ZM9.36,10A1.24,1.24,0,0,0,8.15,8.78a1.24,1.24,0,0,0,0,2.48A1.24,1.24,0,0,0,9.36,10Z"></path><path class="b6ca7048-60b4-477f-b7cc-403a5d1d52dc" d="M13.91,36.52a1.28,1.28,0,0,1,1.28,1.26A1.31,1.31,0,0,1,14,39a1.27,1.27,0,0,1-1.29-1.24A1.21,1.21,0,0,1,13.91,36.52Z"></path><path class="b6ca7048-60b4-477f-b7cc-403a5d1d52dc" d="M9.36,10a1.24,1.24,0,0,1-1.24,1.22,1.24,1.24,0,0,1,0-2.48A1.24,1.24,0,0,1,9.36,10Z"></path><path d="M44,64l-2.33-.37a22.39,22.39,0,0,1-9.26-4A121.07,121.07,0,0,1,13.84,43.26,94.39,94.39,0,0,1,3.33,30,21.19,21.19,0,0,1,.21,15.54,22.16,22.16,0,0,1,6.26,2.93,9,9,0,0,1,19.1,2.44C21,4.2,22.81,6,24.58,7.92a9,9,0,0,1,0,12.26c-1.09,1.18-2.26,2.28-3.38,3.42a3.57,3.57,0,0,0-.18,5.28A122.37,122.37,0,0,0,35.13,43a3.55,3.55,0,0,0,5.23-.16c1.16-1.14,2.28-2.32,3.47-3.42a9,9,0,0,1,12.26,0c1.83,1.73,3.59,3.53,5.36,5.34a8.65,8.65,0,0,1,2.43,4.95A1.36,1.36,0,0,0,64,50v2.13a1,1,0,0,0-.11.27,8.59,8.59,0,0,1-2.48,5,21.66,21.66,0,0,1-10.73,6c-1.17.27-2.37.42-3.55.62ZM43.2,43.47c-.32.33-.68.71-1,1.07a6,6,0,0,1-8.68.29,126.21,126.21,0,0,1-14.3-14.3,6,6,0,0,1,.27-8.67c.37-.38.81-.7,1.3-1.12-.32-.27-.5-.39-.64-.54q-3.66-3.63-7.3-7.28a3.8,3.8,0,0,1-.52-.62A1.11,1.11,0,0,1,12.34,11a1.06,1.06,0,0,1,1.25-.46,2.5,2.5,0,0,1,.92.59l7.34,7.33.5.48c.09-.08.16-.12.22-.18a6.51,6.51,0,0,0,.27-9q-2.67-2.9-5.57-5.57a6.51,6.51,0,0,0-9.08.37A19.58,19.58,0,0,0,2.7,15.63,18.78,18.78,0,0,0,5.5,28.78,96.34,96.34,0,0,0,15.81,41.71,119,119,0,0,0,33.62,57.44a19.59,19.59,0,0,0,18.16,3.07,18,18,0,0,0,5.56-2.9Zm2-1.91L59.43,55.8a6.42,6.42,0,0,0,.47-9c-1.79-2-3.7-3.89-5.68-5.7A6.42,6.42,0,0,0,45.2,41.56Z"></path><path d="M64,23.63a8,8,0,0,1-1.51,3.16A6.22,6.22,0,0,1,58,29c-1,.05-1.92,0-2.88,0a1.33,1.33,0,0,0-.8.33c-1.33,1.29-2.64,2.6-4,3.92a1.38,1.38,0,0,1-1.6.51c-.7-.28-.81-.87-.8-1.54,0-1.06,0-2.11,0-3.24h-.72c-3.33,0-6.66,0-10,0a6.29,6.29,0,0,1-6.53-6.53c0-3.64,0-7.29,0-10.93A6.28,6.28,0,0,1,37.27,5c6.67,0,13.33,0,20,0a6.46,6.46,0,0,1,6.63,5.25.6.6,0,0,0,.09.15Zm-13.5,5.84.16.07c.79-.8,1.58-1.6,2.35-2.42a1.89,1.89,0,0,1,1.5-.62c1,0,1.92,0,2.88,0a3.8,3.8,0,0,0,4.11-4.13V11.69A3.82,3.82,0,0,0,57.3,7.5H37.43a3.83,3.83,0,0,0-4.19,4.19V22.25c0,2.74,1.51,4.25,4.24,4.25H48.92c1.1,0,1.56.46,1.57,1.55C50.5,28.53,50.49,29,50.49,29.47Z"></path><path d="M26.21,48.15a3.4,3.4,0,0,1-.77-.48q-3.61-3.48-7.2-7A1.26,1.26,0,1,1,20,38.89l7.21,7a1.27,1.27,0,0,1,.37,1.52A1.3,1.3,0,0,1,26.21,48.15Z"></path><path d="M42.55,17a1.27,1.27,0,0,1-1.24,1.23,1.25,1.25,0,0,1,0-2.49A1.26,1.26,0,0,1,42.55,17Z"></path><path d="M48.61,17a1.27,1.27,0,0,1-1.24,1.23A1.29,1.29,0,0,1,46.13,17a1.24,1.24,0,1,1,2.48,0Z"></path><path d="M53.4,18.24A1.23,1.23,0,0,1,52.21,17a1.22,1.22,0,1,1,1.19,1.26Z"></path></svg>
