<svg xmlns="http://www.w3.org/2000/svg" viewBox="0 0 64 64" fill="none">
  <defs>
    <linearGradient id="bg" x1="0" y1="0" x2="64" y2="64" gradientUnits="userSpaceOnUse">
      <stop stop-color="#0b5e8f" />
      <stop offset="1" stop-color="#07314c" />
    </linearGradient>
    <linearGradient id="gold" x1="14" y1="10" x2="52" y2="54" gradientUnits="userSpaceOnUse">
      <stop stop-color="#f6e27a" />
      <stop offset="0.5" stop-color="#e0b73e" />
      <stop offset="1" stop-color="#bf922b" />
    </linearGradient>
  </defs>
  <rect width="64" height="64" rx="16" fill="url(#bg)" />
  <path
    d="M27 12h10a2 2 0 0 1 2 2v8h8a2 2 0 0 1 2 2v10a2 2 0 0 1-2 2h-8v8a2 2 0 0 1-2 2H27a2 2 0 0 1-2-2v-8h-8a2 2 0 0 1-2-2V24a2 2 0 0 1 2-2h8v-8a2 2 0 0 1 2-2Z"
    fill="url(#gold)"
  />
  <path
    d="M32 41c-4.4-3.2-7.2-5.7-7.2-8.7a3.6 3.6 0 0 1 6.5-2.1l.7.9.7-.9a3.6 3.6 0 0 1 6.5 2.1c0 3-2.8 5.5-7.2 8.7Z"
    fill="#fffbe9"
  />
</svg>
